<?xml version="1.0" standalone="no"?>
<!DOCTYPE svg PUBLIC "-//W3C//DTD SVG 20010904//EN"
 "http://www.w3.org/TR/2001/REC-SVG-20010904/DTD/svg10.dtd">
<svg version="1.0" xmlns="http://www.w3.org/2000/svg"
 width="64.000000pt" height="64.000000pt" viewBox="0 0 64.000000 64.000000"
 preserveAspectRatio="xMidYMid meet">

<g transform="translate(0.000000,64.000000) scale(0.100000,-0.100000)"
fill="#000000" stroke="none">
<path d="M206 545 c-8 -8 -24 -15 -35 -15 -24 0 -61 -33 -61 -54 0 -8 -8 -17
-18 -21 -21 -6 -45 -51 -36 -67 3 -5 -2 -25 -12 -44 -15 -28 -16 -39 -7 -66 6
-18 14 -52 18 -75 7 -41 41 -83 69 -83 6 0 22 -12 35 -25 25 -27 75 -33 102
-12 35 27 39 54 39 251 0 164 -3 197 -16 210 -20 20 -58 21 -78 1z m-19 -138
c-6 -21 -42 -19 -62 3 -15 17 -16 23 -6 29 16 11 73 -17 68 -32z m17 -117 c-1
-34 -7 -48 -28 -67 -30 -25 -51 -29 -62 -12 -4 7 7 22 25 36 21 17 31 33 31
52 0 15 3 31 7 35 16 16 28 -4 27 -44z"/>
<path d="M356 544 c-13 -13 -16 -46 -16 -210 0 -197 4 -224 39 -251 27 -21 76
-15 102 11 13 13 34 26 45 30 33 10 53 39 58 82 2 21 10 54 17 72 12 29 12 37
-4 63 -9 17 -17 43 -17 59 0 28 -22 60 -41 60 -5 0 -9 7 -9 15 0 22 -37 55
-61 55 -11 0 -27 7 -35 15 -20 20 -58 19 -78 -1z m89 -44 c9 -15 -6 -60 -21
-60 -20 0 -28 25 -14 49 12 22 25 27 35 11z m25 -223 c9 -19 25 -34 40 -37 28
-6 34 -33 9 -38 -44 -8 -110 56 -95 94 9 24 30 15 46 -19z"/>
</g>
</svg>
